<svg width="16" height="16" viewBox="0 0 16 16" fill="none" xmlns="http://www.w3.org/2000/svg">
<path d="M12.75 12.5C13.1478 12.5 13.5294 12.658 13.8107 12.9393C14.092 13.2206 14.25 13.6022 14.25 14C14.25 14.3978 14.092 14.7794 13.8107 15.0607C13.5294 15.342 13.1478 15.5 12.75 15.5C12.3522 15.5 11.9706 15.342 11.6893 15.0607C11.408 14.7794 11.25 14.3978 11.25 14C11.25 13.1675 11.9175 12.5 12.75 12.5ZM0.75 0.5H3.2025L3.9075 2H15C15.1989 2 15.3897 2.07902 15.5303 2.21967C15.671 2.36032 15.75 2.55109 15.75 2.75C15.75 2.8775 15.7125 3.005 15.66 3.125L12.975 7.9775C12.72 8.435 12.225 8.75 11.6625 8.75H6.075L5.4 9.9725L5.3775 10.0625C5.3775 10.1122 5.39725 10.1599 5.43242 10.1951C5.46758 10.2302 5.51527 10.25 5.565 10.25H14.25V11.75H5.25C4.85217 11.75 4.47064 11.592 4.18934 11.3107C3.90803 11.0294 3.75 10.6478 3.75 10.25C3.75 9.9875 3.8175 9.74 3.93 9.53L4.95 7.6925L2.25 2H0.75V0.5ZM5.25 12.5C5.64782 12.5 6.02935 12.658 6.31066 12.9393C6.59196 13.2206 6.75 13.6022 6.75 14C6.75 14.3978 6.59196 14.7794 6.31066 15.0607C6.02935 15.342 5.64782 15.5 5.25 15.5C4.85217 15.5 4.47064 15.342 4.18934 15.0607C3.90803 14.7794 3.75 14.3978 3.75 14C3.75 13.1675 4.4175 12.5 5.25 12.5ZM12 7.25L14.085 3.5H4.605L6.375 7.25H12Z" fill="#F4F6F9"/>
</svg>
