<svg width="15" height="15" viewBox="0 0 15 15" fill="none" xmlns="http://www.w3.org/2000/svg">
<path d="M5.42428 12.4177L5.42413 12.4176C4.7889 12.1497 4.21786 11.7643 3.72751 11.274C3.23734 10.7839 2.85298 10.2128 2.58364 9.57717C2.30485 8.91904 2.16415 8.22099 2.16415 7.5C2.16415 7.10927 1.84779 6.79297 1.45708 6.79297C1.06637 6.79297 0.75 7.10927 0.75 7.5C0.75 8.41028 0.927957 9.29529 1.28015 10.1276C1.62042 10.932 2.10848 11.6533 2.72771 12.2725C3.34695 12.8917 4.06832 13.3797 4.87283 13.7199C5.70518 14.0721 6.59027 14.25 7.50063 14.25C8.41102 14.25 9.29624 14.0721 10.1288 13.7185C10.9315 13.3784 11.6541 12.8918 12.2736 12.2725C12.8927 11.6534 13.3809 10.932 13.7199 10.1274C14.0721 9.29517 14.25 8.41022 14.25 7.5C14.25 6.5897 14.072 5.70468 13.7198 4.87239L13.7198 4.8723C13.3797 4.06954 12.893 3.34692 12.2736 2.72751C11.6543 2.10834 10.9329 1.62033 10.1284 1.2801C9.29609 0.927937 8.411 0.75 7.50063 0.75C7.10992 0.75 6.79356 1.0663 6.79356 1.45703C6.79356 1.84776 7.10992 2.16406 7.50063 2.16406C8.22175 2.16406 8.91996 2.30477 9.57699 2.58234L9.57713 2.5824C10.2114 2.8499 10.7875 3.23822 11.2735 3.72571L11.2738 3.72608C11.7609 4.21266 12.1492 4.78878 12.4176 5.42274L12.4176 5.42281C12.6964 6.08095 12.8371 6.779 12.8371 7.5C12.8371 8.22103 12.6964 8.91917 12.4188 9.57613L12.4187 9.57628C12.1508 10.2114 11.7654 10.7824 11.275 11.2727C10.7849 11.7628 10.2138 12.1472 9.57805 12.4165C8.91984 12.6952 8.22171 12.8359 7.50063 12.8359C6.77952 12.8359 6.08131 12.6952 5.42428 12.4177Z" fill="#F4F6F9" stroke="#F4F6F9" stroke-width="0.5"/>
</svg>
